<svg width="772" height="691" viewBox="0 0 772 691" fill="none" xmlns="http://www.w3.org/2000/svg">
<line y1="-0.5" x2="1120.91" y2="-0.5" transform="matrix(0.866041 0.499972 -0.866041 0.499972 -964.25 554.108)" stroke="#F0DCBD"/>
<line y1="-0.5" x2="1120.91" y2="-0.5" transform="matrix(-0.866041 0.499972 -0.866041 -0.499972 6.39575 8.06565)" stroke="#F0DCBD"/>
<line y1="-0.5" x2="1120.91" y2="-0.5" transform="matrix(0.866041 0.499972 -0.866041 0.499972 -896.683 515.101)" stroke="#F0DCBD"/>
<line y1="-0.5" x2="1120.91" y2="-0.5" transform="matrix(-0.866041 0.499972 -0.866041 -0.499972 73.9636 47.0732)" stroke="#F0DCBD"/>
<line y1="-0.5" x2="1120.91" y2="-0.5" transform="matrix(0.866041 0.499972 -0.866041 0.499972 -829.115 476.094)" stroke="#F0DCBD"/>
<line y1="-0.5" x2="1120.91" y2="-0.5" transform="matrix(-0.866041 0.499972 -0.866041 -0.499972 141.531 86.0804)" stroke="#F0DCBD"/>
<line y1="-0.5" x2="1120.91" y2="-0.5" transform="matrix(0.866041 0.499972 -0.866041 0.499972 -761.547 437.086)" stroke="#F0DCBD"/>
<line y1="-0.5" x2="1120.91" y2="-0.5" transform="matrix(-0.866041 0.499972 -0.866041 -0.499972 209.099 125.088)" stroke="#F0DCBD"/>
<line y1="-0.5" x2="1120.91" y2="-0.5" transform="matrix(0.866041 0.499972 -0.866041 0.499972 -693.979 398.079)" stroke="#F0DCBD"/>
<line y1="-0.5" x2="1120.91" y2="-0.5" transform="matrix(-0.866041 0.499972 -0.866041 -0.499972 276.667 164.096)" stroke="#F0DCBD"/>
<line y1="-0.5" x2="1120.91" y2="-0.5" transform="matrix(0.866041 0.499972 -0.866041 0.499972 -626.411 359.071)" stroke="#F0DCBD"/>
<line y1="-0.5" x2="1120.91" y2="-0.5" transform="matrix(-0.866041 0.499972 -0.866041 -0.499972 344.235 203.103)" stroke="#F0DCBD"/>
<line y1="-0.5" x2="1120.91" y2="-0.5" transform="matrix(0.866041 0.499972 -0.866041 0.499972 -558.843 320.064)" stroke="#F0DCBD"/>
<line y1="-0.5" x2="1120.91" y2="-0.5" transform="matrix(-0.866041 0.499972 -0.866041 -0.499972 411.803 242.111)" stroke="#F0DCBD"/>
<line y1="-0.5" x2="1120.91" y2="-0.5" transform="matrix(0.866041 0.499972 -0.866041 0.499972 -491.275 281.056)" stroke="#F0DCBD"/>
<line y1="-0.5" x2="1120.91" y2="-0.5" transform="matrix(-0.866041 0.499972 -0.866041 -0.499972 479.371 281.118)" stroke="#F0DCBD"/>
<line y1="-0.5" x2="1120.91" y2="-0.5" transform="matrix(0.866041 0.499972 -0.866041 0.499972 -423.709 242.049)" stroke="#F0DCBD"/>
<line y1="-0.5" x2="1120.91" y2="-0.5" transform="matrix(-0.866041 0.499972 -0.866041 -0.499972 546.938 320.125)" stroke="#F0DCBD"/>
<line y1="-0.5" x2="1120.91" y2="-0.5" transform="matrix(0.866041 0.499972 -0.866041 0.499972 -356.141 203.042)" stroke="#F0DCBD"/>
<line y1="-0.5" x2="1120.91" y2="-0.5" transform="matrix(-0.866041 0.499972 -0.866041 -0.499972 614.506 359.133)" stroke="#F0DCBD"/>
<line y1="-0.5" x2="1120.91" y2="-0.5" transform="matrix(0.866041 0.499972 -0.866041 0.499972 -288.573 164.035)" stroke="#F0DCBD"/>
<line y1="-0.5" x2="1120.91" y2="-0.5" transform="matrix(-0.866041 0.499972 -0.866041 -0.499972 682.074 398.14)" stroke="#F0DCBD"/>
<line y1="-0.5" x2="1120.91" y2="-0.5" transform="matrix(0.866041 0.499972 -0.866041 0.499972 -221.005 125.027)" stroke="#F0DCBD"/>
<line y1="-0.5" x2="1120.91" y2="-0.5" transform="matrix(-0.866041 0.499972 -0.866041 -0.499972 749.642 437.148)" stroke="#F0DCBD"/>
<line y1="-0.5" x2="1120.91" y2="-0.5" transform="matrix(0.866041 0.499972 -0.866041 0.499972 -153.438 86.0193)" stroke="#F0DCBD"/>
<line y1="-0.5" x2="1120.91" y2="-0.5" transform="matrix(-0.866041 0.499972 -0.866041 -0.499972 817.21 476.155)" stroke="#F0DCBD"/>
<line y1="-0.5" x2="1120.91" y2="-0.5" transform="matrix(0.866041 0.499972 -0.866041 0.499972 -85.9756 47.0732)" stroke="#F0DCBD"/>
<line y1="-0.5" x2="1120.91" y2="-0.5" transform="matrix(-0.866041 0.499972 -0.866041 -0.499972 884.778 515.163)" stroke="#F0DCBD"/>
<line y1="-0.5" x2="1120.91" y2="-0.5" transform="matrix(0.866041 0.499972 -0.866041 0.499972 -18.4077 8.06568)" stroke="#F0DCBD"/>
<line y1="-0.5" x2="1120.91" y2="-0.5" transform="matrix(-0.866041 0.499972 -0.866041 -0.499972 952.346 554.17)" stroke="#F0DCBD"/>
</svg>
